<svg xmlns="http://www.w3.org/2000/svg" xmlns:xlink="http://www.w3.org/1999/xlink" id="Layer_2" data-name="Layer 2" viewBox="0 0 644.86 166.72"><defs><style>      .cls-1 {        fill: #f4ede0;      }      .cls-2 {        fill: url(#linear-gradient);      }    </style><linearGradient id="linear-gradient" x1="2.26" y1="61.83" x2="644.86" y2="61.83" gradientUnits="userSpaceOnUse"><stop offset="0" stop-color="#e9ad1a"></stop><stop offset="1" stop-color="#fed07c"></stop></linearGradient></defs><g id="Layer_1-2" data-name="Layer 1"><g><path class="cls-2" d="M33.47,71.93L75.64,0c5.61,10.38,11.19,20.73,16.75,31.06,5.56,10.33,11.2,20.6,16.94,30.83,5.74,10.23,11.6,20.37,17.59,30.43,5.99,10.06,12.22,20,18.69,29.82h-18.12c-2.34-4.79-5.04-10.1-8.13-15.93-3.08-5.83-6.48-12.07-10.18-18.75H34.3c-3.63,6.29-7.07,12.35-10.33,18.17-3.26,5.82-6.27,11.32-9.04,16.5H2.26c2.36-3.63,4.81-7.43,7.35-11.42,2.54-3.98,5.13-8.1,7.77-12.35,2.64-4.25,5.31-8.59,8.01-13.03,2.7-4.44,5.4-8.91,8.09-13.4ZM104.87,79.81l-31.48-58.35-34.63,58.35h66.11ZM151.66,18.23c-.2,3.4-.39,6.97-.55,10.71-.17,3.74-.3,7.61-.42,11.59s-.2,8.05-.27,12.2c-.06,4.15-.11,8.34-.13,12.58l.04,14.69c-.1,4.01.35,7.7,1.35,11.06,1,3.36,2.42,6.39,4.26,9.08,1.84,2.69,4.04,5.04,6.6,7.06,2.56,2.02,5.35,3.7,8.37,5.04,3.02,1.35,6.2,2.36,9.55,3.04,3.35.69,6.72,1.04,10.12,1.07,3.45,0,6.86-.33,10.24-.99,3.37-.66,6.59-1.66,9.65-3.01,3.06-1.34,5.89-3.02,8.49-5.04,2.6-2.02,4.84-4.37,6.72-7.06,1.88-2.69,3.32-5.72,4.34-9.1,1.01-3.37,1.47-7.09,1.37-11.15l.04-14.69c-.03-4.24-.07-8.43-.13-12.58-.06-4.15-.15-8.21-.27-12.2-.11-3.98-.25-7.85-.42-11.59-.16-3.74-.35-7.31-.55-10.71h16.29c-.2,3.4-.39,6.97-.55,10.71-.17,3.74-.3,7.61-.42,11.59-.11,3.98-.2,8.06-.27,12.22-.06,4.16-.11,8.36-.13,12.6l-.04,15c0,4.82-.71,9.24-2.13,13.27-1.42,4.02-3.39,7.64-5.9,10.85-2.51,3.21-5.48,6.02-8.91,8.43-3.43,2.41-7.15,4.42-11.17,6.01-4.02,1.6-8.25,2.79-12.69,3.58-4.44.79-8.92,1.18-13.43,1.18s-8.95-.41-13.38-1.22c-4.43-.81-8.64-2.02-12.64-3.62-3.99-1.6-7.7-3.6-11.11-6.01s-6.36-5.22-8.85-8.43c-2.49-3.21-4.43-6.82-5.84-10.83-1.41-4.01-2.11-8.41-2.11-13.21l-.04-15c-.03-4.24-.07-8.44-.13-12.6-.06-4.16-.15-8.23-.27-12.22-.11-3.98-.25-7.85-.42-11.59-.17-3.74-.35-7.31-.55-10.71h16.29ZM257.21,122.13c.2-3.4.39-6.97.55-10.71.16-3.74.3-7.61.42-11.59s.2-8.06.27-12.24c.06-4.17.11-8.37.13-12.58.02-5.02.01-10.05-.04-15.07-.05-5.02-.13-9.95-.25-14.79s-.26-9.52-.44-14.04-.39-8.82-.65-12.88l72.62.04c4.47,0,8.5.53,12.1,1.6s6.76,2.51,9.46,4.32c2.7,1.81,4.97,3.93,6.79,6.34,1.83,2.41,3.2,4.98,4.11,7.71.91,2.73,1.38,5.53,1.41,8.39.02,2.87-.41,5.66-1.29,8.37-.89,2.72-2.23,5.28-4.02,7.71-1.79,2.42-4.04,4.54-6.75,6.35-2.72,1.81-5.89,3.25-9.52,4.3s-7.72,1.58-12.29,1.58h-6.74c2.33,1.22,4.49,2.7,6.45,4.43,1.96,1.74,3.9,3.7,5.8,5.88l22.53,25.81c1.14,1.32,2.28,2.56,3.43,3.71,1.14,1.15,2.26,2.16,3.35,3.02,1.09.86,2.16,1.55,3.2,2.07,1.04.52,2.05.79,3.04.82l3.08.08.27,1.41h-14.61c-1.12,0-2.36-.19-3.73-.57-1.37-.38-2.82-.99-4.36-1.85-1.54-.85-3.13-1.95-4.8-3.31-1.66-1.36-3.34-3-5.04-4.93l-20.17-22.87c-1.73-1.95-3.49-3.76-5.29-5.42-1.8-1.66-3.73-3.1-5.78-4.32-2.05-1.22-4.28-2.18-6.68-2.87-2.4-.7-5.07-1.05-8.01-1.05h-23.64c.03,4.21.07,8.41.13,12.58.06,4.17.15,8.25.27,12.23s.25,7.85.42,11.61c.16,3.76.35,7.34.55,10.73h-16.29ZM272.12,67.75h57.4c2.74,0,5.21-.39,7.4-1.18,2.2-.79,4.12-1.86,5.77-3.22,1.65-1.36,3.03-2.94,4.13-4.74,1.1-1.8,1.94-3.72,2.49-5.75.56-2.03.84-4.12.84-6.28s-.27-4.25-.82-6.28c-.54-2.03-1.36-3.95-2.45-5.75-1.09-1.8-2.47-3.38-4.13-4.74-1.66-1.36-3.6-2.43-5.8-3.22-2.21-.79-4.7-1.18-7.46-1.18l-57.32-.04-.04,42.36ZM481.05,18.23v17.17c-2.87-2.31-5.94-4.13-9.21-5.46-3.27-1.33-6.65-2.33-10.14-3.01s-7.06-1.1-10.7-1.28c-3.64-.18-7.25-.27-10.83-.27-1.4,0-2.77,0-4.13.02-1.36.01-2.71.02-4.05.02l-26.04-.04h-9.71v37.15h39.36c4.85,0,9.07-.18,12.67-.53,3.6-.36,6.68-.93,9.23-1.71,2.55-.79,4.62-1.81,6.2-3.08,1.59-1.27,2.8-2.82,3.64-4.64v27.14c-.79-1.65-1.97-3.1-3.56-4.34s-3.66-2.28-6.22-3.12c-2.56-.84-5.65-1.47-9.27-1.88-3.62-.42-7.85-.63-12.69-.63h-39.36v45.25l34.37-.04c7.06,0,13.54-.18,19.45-.55,5.91-.37,11.23-.95,15.95-1.73,4.72-.79,8.83-1.81,12.33-3.06,3.5-1.26,6.37-2.78,8.6-4.59l-4.57,17.17h-31.31c-4.78,0-9.44,0-13.97-.02-4.53-.01-9.06-.02-13.61-.02h-42.22c.3-4.97.56-10.3.76-15.99.2-5.68.35-11.54.46-17.58.1-6.04.15-12.17.15-18.38s-.05-12.34-.15-18.38c-.1-6.04-.26-11.9-.46-17.58-.2-5.68-.46-11.01-.76-15.99h99.76ZM520.79,71.93L567.45,0l37.06,61.95c3.34,5.34,6.73,10.66,10.17,15.98,3.44,5.32,6.88,10.54,10.32,15.67,3.44,5.12,6.83,10.09,10.17,14.89,3.34,4.8,6.57,9.35,9.69,13.65h-20.05c-2.59-4.8-5.58-10.11-8.99-15.94s-7.17-12.07-11.27-18.72h-82.84c-4.01,6.26-7.83,12.3-11.43,18.13s-6.94,11.34-10,16.53h-14.02c2.61-3.62,5.32-7.43,8.13-11.43,2.81-4,5.67-8.12,8.59-12.36,2.92-4.24,5.87-8.58,8.87-13.01,2.99-4.44,5.97-8.9,8.95-13.39ZM599.8,79.81l-34.83-58.33-38.32,58.33h73.15Z"></path><path class="cls-1" d="M14.43,158.5c-.63-.3-1.38-.44-2.22-.48.68-.1,1.29-.26,1.79-.51.62-.33,1.1-.77,1.42-1.33.32-.56.49-1.23.49-2,0-1.2-.42-2.15-1.26-2.84-.84-.69-1.99-1.04-3.45-1.04H0v16.11h11.19c1.14,0,2.12-.18,2.95-.53.82-.35,1.45-.87,1.88-1.53.44-.67.65-1.46.65-2.36,0-.8-.2-1.49-.59-2.09-.39-.59-.94-1.06-1.66-1.4ZM2.93,152.57h7.49c.81,0,1.43.19,1.86.55.43.37.64.9.64,1.59,0,.47-.1.87-.29,1.22s-.47.61-.81.8c-.35.19-.76.29-1.24.29H2.93v-4.45ZM13.26,162.96c-.23.37-.56.67-.98.87-.42.2-.92.3-1.51.3H2.93v-4.98h7.92c.57,0,1.06.1,1.47.3.41.2.72.5.95.87.23.38.34.82.34,1.33s-.12.93-.35,1.31ZM44.43,160.01c-.24-.43-.58-.76-1.02-.98-.32-.16-.75-.26-1.24-.33.59-.13,1.12-.31,1.55-.58.57-.37,1-.84,1.28-1.43s.42-1.25.42-1.98c0-.95-.22-1.75-.64-2.41-.43-.65-1.04-1.15-1.83-1.49-.79-.34-1.71-.51-2.76-.51h-11.06v16.11h2.93v-6.41h7.69c.71,0,1.23.16,1.58.48s.61.8.79,1.45l1.26,4.49h3.05l-1.38-4.8c-.18-.63-.39-1.16-.63-1.59ZM41.03,157.44c-.41.19-.88.28-1.41.28h-7.56v-5.12h7.56c.8,0,1.45.2,1.96.61.51.4.77,1.03.77,1.87,0,.6-.12,1.1-.35,1.49-.23.39-.56.68-.97.87ZM58.78,150.3h14.98v2.3h-12.03v4.49h11.1v2.21h-11.1v4.81h12.03v2.3h-14.98v-16.11ZM93.05,150.3l-8.05,16.11h2.98l1.89-3.88h9.62l1.89,3.88h3.25l-8.05-16.11h-3.52ZM90.96,160.29l3.73-7.65,3.72,7.65h-7.45ZM128.54,159.14l4.87,7.26h-3.47l-4.22-6.41c-.44-.68-.94-1.06-1.52-1.14-.58-.08-1.18.15-1.79.69l-3.23,2.86v4h-2.93v-16.11h2.93v8.87l9.86-8.87h3.79l-7.45,6.61c.45.08.86.21,1.22.4.36.19.7.43,1.03.73.32.3.63.67.91,1.11ZM145.13,150.3h14.85v2.3h-11.91v4.47h11.17v2.19h-11.17v7.15h-2.93v-16.11ZM177.46,150.3l-8.05,16.11h2.98l1.89-3.88h9.62l1.89,3.88h3.25l-8.05-16.11h-3.52ZM175.37,160.29l3.73-7.65,3.72,7.65h-7.45ZM216.12,159.5c.43.6.64,1.35.64,2.23,0,.81-.18,1.53-.54,2.16-.36.62-.9,1.14-1.61,1.55-.72.41-1.59.73-2.64.95-1.05.22-2.26.33-3.64.33-1.52,0-2.83-.13-3.93-.39-1.1-.26-2-.63-2.71-1.11-.71-.48-1.24-1.02-1.6-1.65s-.57-1.3-.63-2.02h3.05c.11.42.29.81.54,1.16.26.35.61.67,1.07.94.46.27,1.04.48,1.74.63s1.52.22,2.47.22c1.16,0,2.14-.1,2.95-.3.8-.2,1.41-.5,1.82-.89.41-.39.61-.88.61-1.47,0-.35-.09-.66-.26-.94s-.46-.52-.86-.71c-.4-.19-.93-.34-1.59-.43l-5.26-.68c-.83-.12-1.59-.28-2.29-.47-.7-.2-1.32-.47-1.85-.81s-.94-.78-1.23-1.3c-.29-.52-.43-1.15-.43-1.88s.18-1.37.54-1.93.89-1.05,1.58-1.46,1.55-.72,2.56-.94c1.01-.22,2.17-.33,3.46-.33,1.37,0,2.55.12,3.54.36.99.24,1.81.58,2.45,1s1.12.92,1.45,1.48c.32.56.51,1.16.55,1.81h-3.05c-.08-.48-.3-.9-.67-1.27-.37-.36-.91-.64-1.61-.86-.71-.21-1.62-.32-2.73-.32s-2.04.1-2.79.29c-.74.19-1.31.45-1.68.8-.38.35-.56.76-.56,1.24,0,.41.12.75.36,1.04.24.29.59.52,1.04.7.45.18,1,.31,1.65.39l5.48.72c1.08.12,2.02.36,2.8.71s1.39.83,1.82,1.43ZM227.39,150.3h17.08v2.28h-7.06v13.83h-2.93v-13.83h-7.09v-2.28ZM272.68,158.42h8.89v2.3h-8.89v-2.3ZM313.82,156.59c-.14.54-.21,1.13-.21,1.76,0,1.25.28,2.32.84,3.23.56.9,1.37,1.6,2.4,2.1,1.04.5,2.28.75,3.72.75,1.07,0,2.03-.14,2.89-.41.86-.27,1.58-.66,2.17-1.16.59-.51.98-1.1,1.2-1.77h3.18c-.21,1.14-.73,2.14-1.57,2.99-.84.85-1.93,1.5-3.27,1.96-1.35.46-2.88.69-4.59.69-2.05,0-3.82-.34-5.32-1.02-1.5-.69-2.67-1.66-3.5-2.91-.83-1.26-1.24-2.73-1.24-4.43,0-.84.1-1.64.32-2.38.21-.74.52-1.43.92-2.05.41-.62.9-1.18,1.49-1.66.59-.48,1.25-.89,2-1.23s1.56-.6,2.46-.78c.89-.18,1.85-.27,2.88-.27,1.73,0,3.26.23,4.6.69,1.34.46,2.42,1.11,3.26,1.96.83.85,1.36,1.85,1.57,2.99h-3.18c-.2-.68-.58-1.27-1.16-1.77-.58-.5-1.31-.89-2.18-1.16-.87-.27-1.84-.41-2.91-.41-.72,0-1.39.06-2.02.19-.62.13-1.2.31-1.72.55-.52.24-.98.54-1.39.88-.41.35-.74.74-1.01,1.19-.27.45-.48.95-.62,1.49ZM348.24,150.3l-8.05,16.11h2.98l1.89-3.88h9.62l1.89,3.88h3.25l-8.05-16.11h-3.52ZM346.15,160.29l3.73-7.65,3.72,7.65h-7.45ZM371.44,150.3h14.85v2.3h-11.91v4.47h11.17v2.19h-11.17v7.15h-2.93v-16.11ZM398.7,150.3h14.98v2.3h-12.02v4.49h11.1v2.21h-11.1v4.81h12.02v2.3h-14.98v-16.11ZM443.03,158.42h8.89v2.3h-8.89v-2.3ZM484.59,164.11h11.37v2.3h-14.3v-16.11h2.93v13.81ZM521.82,151.01c-1.51-.68-3.27-1.02-5.3-1.02-1.01,0-1.95.08-2.84.26s-1.7.43-2.45.77c-.75.34-1.41.75-2,1.24s-1.09,1.05-1.5,1.67-.73,1.31-.94,2.04c-.21.74-.32,1.53-.32,2.39,0,1.7.41,3.18,1.24,4.44.82,1.26,2,2.23,3.51,2.91,1.51.68,3.27,1.01,5.29,1.01,1.01,0,1.96-.08,2.85-.26.9-.17,1.72-.43,2.46-.77.75-.34,1.41-.75,2-1.24.59-.49,1.08-1.05,1.49-1.67.4-.62.72-1.31.94-2.06.22-.74.33-1.54.33-2.38,0-1.7-.42-3.18-1.25-4.43-.83-1.26-2.01-2.23-3.51-2.91ZM523.3,160.07c-.14.54-.35,1.04-.63,1.49s-.62.86-1.02,1.21c-.41.35-.87.65-1.39.9s-1.09.44-1.72.56c-.62.13-1.3.19-2.02.19-1.45,0-2.69-.25-3.74-.76-1.05-.5-1.85-1.21-2.4-2.12s-.83-1.97-.83-3.19c0-.6.07-1.17.21-1.71.14-.54.35-1.04.63-1.49.28-.45.61-.86,1.01-1.21.4-.35.86-.65,1.37-.9.52-.25,1.09-.44,1.72-.56.62-.13,1.3-.19,2.02-.19,1.46,0,2.71.25,3.75.76,1.04.5,1.84,1.21,2.4,2.12.56.91.85,1.97.85,3.19,0,.6-.07,1.17-.22,1.71ZM552.62,150.3h2.66v9c0,1.58-.33,2.92-.98,4.03-.65,1.11-1.59,1.95-2.81,2.53-1.22.58-2.68.87-4.4.87s-3.25-.29-4.51-.87c-1.26-.58-2.23-1.42-2.9-2.53-.67-1.11-1-2.44-1-4v-9.03h2.96v8.93c0,1.06.21,1.97.63,2.77.42.79,1.05,1.4,1.87,1.83.83.43,1.84.64,3.05.64s2.19-.21,2.99-.64c.8-.43,1.41-1.03,1.83-1.82.41-.78.62-1.7.62-2.75v-8.96ZM582.52,150.3h2.69v16.11h-3.43l-10.87-12.65v12.65h-2.71v-16.11h3.47l10.85,12.61v-12.61ZM607.45,158.01h9.41v8.39h-2.78l-.04-3.29c-.34.59-.75,1.15-1.29,1.64-.67.6-1.48,1.08-2.46,1.43-.98.35-2.14.53-3.5.53s-2.5-.2-3.63-.59c-1.13-.39-2.11-.95-2.96-1.68-.84-.73-1.5-1.61-1.97-2.64-.47-1.03-.71-2.19-.71-3.46,0-.86.11-1.66.32-2.39.21-.74.52-1.42.94-2.04.41-.62.91-1.18,1.49-1.67.58-.49,1.25-.9,2-1.24.75-.34,1.58-.59,2.47-.77.9-.17,1.85-.26,2.86-.26,1.26,0,2.42.13,3.47.38,1.05.25,1.98.62,2.79,1.08.8.46,1.46,1.02,1.96,1.67.5.65.84,1.35,1,2.12h-3.18c-.21-.53-.58-1.01-1.11-1.46-.53-.44-1.2-.8-2.03-1.08-.83-.28-1.8-.42-2.91-.42-.72,0-1.4.06-2.03.18-.63.12-1.21.31-1.73.55-.52.25-.98.55-1.37.91-.4.36-.74.77-1.01,1.21-.28.44-.49.94-.62,1.48-.14.54-.2,1.12-.2,1.74,0,1.23.28,2.3.83,3.22.56.91,1.35,1.61,2.39,2.11,1.04.5,2.29.75,3.75.75.96,0,1.84-.12,2.62-.36.78-.24,1.46-.59,2.03-1.05.57-.46,1.02-1.02,1.35-1.68.18-.36.31-.76.4-1.17h-6.53v-2.14ZM632.84,152.6v4.49h11.1v2.21h-11.1v4.81h12.02v2.3h-14.98v-16.11h14.98v2.3h-12.02Z"></path></g></g></svg>